<?xml version="1.0" encoding="UTF-8"?>
<svg version="1.2" baseProfile="tiny-ps" id="tradevada" xmlns="http://www.w3.org/2000/svg" viewBox="0 0 300 300"><title>Tradevada</title>
<path d="M0 0 C99 0 198 0 300 0 C300 99 300 198 300 300 C201 300 102 300 0 300 C0 201 0 102 0 0 Z " fill="#FEFEFE" transform="translate(0,0)"/>
<path d="M0 0 C0.9900000000000091 0.3299999999999983 1.9799999999999898 0.6600000000000001 3 1 C3 2.3200000000000003 3 3.6400000000000006 3 5 C4.97999999999999 5.990000000000002 6.960000000000008 6.98 9 8 C9.990000000000009 9.649999999999999 10.97999999999999 11.3 12 13 C12.164999999999992 13.165 12.164999999999992 13.165 13 14 C17 18 17 18 17 21 C17.99000000000001 21 18.97999999999999 21 20 21 C22.5234375 23.6328125 22.5234375 23.6328125 25.375 27.125 C26.310859375000007 28.261953125000005 27.24671875 29.398906249999996 28.2109375 30.5703125 C29.131328124999996 31.702109375 30.051718750000006 32.83390625 31 34 C36 40 36 40 41.1953125 40.62109375 C43.15210937500001 40.5605078125 45.10890625000002 40.499921875 47.125 40.4375 C49.08695312499998 40.3949609375 51.048906250000016 40.352421875 53.0703125 40.30859375 C58 40 58 40 61 39 C61.329999999999984 39.33 61.66 39.66 62 40 C69.40276382468136 40.66218815646939 76.61103486690988 40.862671056147576 84 40 C89.25000000000003 35.56249999999997 89.25000000000003 35.56249999999997 92 31 C92.32999999999998 30.835 92.32999999999998 30.835 94 30 C94.66 28.68 95.32 27.36 96 26 C96.99000000000001 25.340000000000003 97.97999999999999 24.68 99 24 C99.66 22.68 100.32 21.36 101 20 C101.99000000000001 19.340000000000003 102.97999999999999 18.68 104 18 C104.66 16.68 105.32 15.36 106 14 C106.32999999999998 14.165 106.32999999999998 14.165 108 15 C111 10 111 10 112 7 C113.97999999999999 6.670000000000002 115.96000000000001 6.34 118 6 C118 3.000000000000014 118 3.000000000000014 117 1 C117.99000000000001 0.6700000000000017 118.97999999999999 0.33999999999999986 120 0 C133.26793935607728 18.32239244410671 138.851787039794 40.520361390010834 137.361083984375 62.899658203125 C136.10101255121955 85.45193978908301 143.3923831729941 98.50444291247 156.61376953125 116.57177734375 C158.83291601945564 119.65134841472684 160.92812913618565 122.81947799237452 163 126 C162.34 126.99000000000001 161.68 127.98000000000002 161 129 C155.87500000000014 128.6875 155.87500000000014 128.6875 151 128 C151.928125 130.248125 152.85625 132.49625 153.8125 134.8125 C158.22115766250263 145.8341441562566 161 156.05705747774041 161 168 C154.52104286177888 166.70420857235578 151.74113125984135 163.45807864731353 147 159 C146.8040625 160.2478125 146.8040625 160.2478125 145.8125 166.5625 C143.3472810684747 180.39065828567217 138.72430838947682 192.67210128595917 132 205 C131.01 205.66 130.02 206.32 129 207 C128.34 205.02 127.68 203.04 127 201 C126.071875 202.5675 125.14375000000001 204.135 124.1875 205.75 C112.81167643032052 222.72884114877536 97.34286436955273 233.60700881479727 80.45703125 244.6484375 C73.78131616648506 249.1894323929672 67.70225267308604 254.29774732691396 62 260 C56.03056842026672 258.80611368405334 53.799410687908846 256.0974155155895 49.484375 252.015625 C43.91873940408084 247.1987296187785 37.77627642953554 243.27266265105266 31.671875 239.17578125 C16.61292331750198 228.9392196129842 4.130486805363034 218.19573020804455 -6 203 C-6.659999999999997 203.66 -6.659999999999997 203.66 -10 207 C-18.76801983749462 193.43044548959168 -22.93794973857753 179.67141620974166 -26 164 C-26.33 162.35 -26.659999999999997 160.7 -27 159 C-28.753124999999997 160.670625 -30.50625 162.34125 -32.3125 164.0625 C-34.189375 165.691875 -36.06625 167.32125 -38 169 C-38.99 168.67 -39.98 168.34 -41 168 C-41 157.16974723609738 -39.01720167186159 137.01720167186159 -31 129 C-32.60875 129.061875 -34.2175 129.12375 -35.875 129.1875 C-37.56625 129.125625 -39.2575 129.06375 -41 129 C-41.66 128.01 -42.32 127.01999999999998 -43 126 C-40.78747516069087 122.57750063919369 -38.55159551493086 119.16858863677132 -36.22265625 115.82421875 C-31.030580547242593 108.0518387585995 -26.469739004565596 99.918362490171 -21.80859375 91.8203125 C-18.99999999999997 86.99999999999999 -18.99999999999997 86.99999999999999 -18 86 C-18.004249246571987 82.12681174962805 -18.015891240775147 78.25348272570541 -18.06591796875 74.380615234375 C-18.39718288432171 47.36609825583072 -15.513497678523734 24.36919117728398 -1 1 C-0.6700000000000017 0.6700000000000017 -0.3400000000000034 0.33999999999999986 0 0 Z " fill="#391C6C" transform="translate(90,20)"/>
<path d="M0 0 C0.9899999999999949 0.3299999999999983 1.980000000000004 0.6600000000000001 3 1 C3 2.3200000000000003 3 3.6400000000000006 3 5 C4.980000000000004 5.990000000000002 6.960000000000008 6.98 9 8 C9.989999999999995 9.649999999999999 10.980000000000004 11.3 12 13 C12.329999999999998 13.329999999999998 12.659999999999997 13.659999999999997 13 14 C17 18 17 18 17 21 C17.99000000000001 21 18.97999999999999 21 20 21 C22.5234375 23.6328125 22.5234375 23.6328125 25.375 27.125 C26.310859375000007 28.261953125000005 27.24671875 29.398906249999996 28.2109375 30.5703125 C29.13132812500001 31.702109375 30.051718749999992 32.83390625 31 34 C36 40 36 40 41.1953125 40.62109375 C43.15210937500001 40.5605078125 45.10890624999999 40.499921875 47.125 40.4375 C49.08695312499998 40.3949609375 51.048906250000016 40.352421875 53.0703125 40.30859375 C58 40 58 40 61 39 C61.329999999999984 39.33 61.66 39.66 62 40 C69.40296857902933 40.6622064720482 76.61125276702575 40.866746597930366 84 40 C89.375 35.50000000000001 89.375 35.50000000000001 92 31 C92.16499999999999 31.659999999999997 92.16499999999999 31.659999999999997 93 35 C89.74216004883192 39.06172253652122 86.40542551978194 43.061194579529335 83 47 C82.34 48.31999999999999 81.68 49.64 81 51 C83.02125000000001 52.58812499999999 85.04250000000002 54.17625000000001 87.125 55.8125 C88.39085937499999 56.80765625000001 89.65671874999998 57.8028125 90.9609375 58.828125 C93.63064124052949 60.924642831054115 96.3024814434541 63.018443250480814 98.9765625 65.109375 C108.78749999999997 72.78749999999998 108.78749999999997 72.78749999999998 111 75 C112.65 75.66 114.30000000000001 76.32 116 77 C117.32 77.99 118.63999999999999 78.98 120 80 C120.99000000000001 80.33 120.99000000000001 80.33 126 82 C126.66 82.66 127.32 83.32 128 84 C128.99 84.66 129.98 85.32 131 86 C131.99 86.66 132.98 87.32 134 88 C133.34 88 132.68 88 132 88 C131.71125 89.60875 131.4225 91.2175 131.125 92.875 C130 98.00000000000001 130 98.00000000000001 128 100 C124.69999999999999 96.04 121.4 92.08 118 88 C116.68 89.65 115.36000000000001 91.3 114 93 C114.99000000000001 93.66 115.97999999999999 94.32 117 95 C117.66 94.67 118.32 94.34 119 94 C118 97 118 97 113.9375 99.5 C106.63477074801943 102.57483336925497 99.80441114282371 103.6455154214934 92 105 C91.00999999999999 105.66 90.01999999999998 106.32 89 107 C90.65 107.66 92.30000000000001 108.32 94 109 C94.32999999999998 110.65 94.66 112.30000000000001 95 114 C94.00999999999999 114.99000000000001 93.01999999999998 115.98000000000002 92 117 C93.98000000000002 115.68 95.95999999999998 114.36000000000001 98 113 C98.99000000000001 113 99.98000000000002 113 101 113 C101.32999999999998 112.34 101.32999999999998 112.34 103 109 C104.98000000000002 108.34 106.95999999999998 107.68 109 107 C107.10480228067723 113.58331839343703 105.55304683825275 116.5363437940967 101 122 C95.21063737189212 124.74749412859359 89.27078549797511 125.81363517605877 83 127 C82.67000000000002 127.16499999999999 82.67000000000002 127.16499999999999 81 128 C80.18430245383115 135.61317709757606 82.15401964112982 142.50439924441002 84.02734375 149.81640625 C85 153.99999999999997 85 153.99999999999997 85.50390625 158.08984375 C86 162 86 162 88 169 C87.24727359173878 176.52726408261228 85.52790462473644 180.79726623554217 80 186 C74.7946225623671 188.08215097505317 71.53235247504185 188.32071608550967 66 188 C65.34 187.34 64.68 186.68 64 186 C64.82499999999999 185.175 64.82499999999999 185.175 69 181 C74.30848025764797 174.62982369082243 74.58353385058894 173.70264682777392 74 166 C72.68 166.99 71.36000000000001 167.98 70 169 C62.718946582648925 170.84219423812496 57.15044896327677 171.5301588639287 50 169 C48.68000000000001 167.35 47.360000000000014 165.7 46 164 C45.63952859424771 171.299545966484 45.701075498090745 175.9546374191901 50 182 C49.00999999999999 182.66 48.01999999999998 183.32 47 184 C46.670000000000016 184.66 46.34 185.32 46 186 C48.639999999999986 186.33 51.28 186.66 54 187 C54 187.33 54 187.66 54 188 C46.56801618404813 188.4017288549163 44.45583109610607 188.30388739740403 38 184 C33.74172333158174 179.07932473871668 32 175.53425157288967 32 169 C32.941911270508825 165.31798321528365 33.94518702787735 161.65127567273223 35 158 C35.337510177770525 154.66708699451613 35.670741892328365 151.3337383401753 36 148 C36.990673299232355 143.99767987110124 37.98966745565123 139.99740267546687 39 136 C39 134.35 39 132.7 39 131 C38.670000000000016 133.31 38.34 135.62 38 138 C37.67 137.67000000000002 37.67 137.67000000000002 36 136 C31.00000000000003 137.99999999999997 31.00000000000003 137.99999999999997 28 140 C22.78462102443038 137.6096179695306 17.779725500419175 135.18648366694612 13 132 C14.650000000000006 132 16.299999999999997 132 18 132 C17.340000000000003 131.175 17.340000000000003 131.175 14 127 C9.7373271889401 114.78801843317973 9.7373271889401 114.78801843317973 11 111 C11 109.68 11 108.36000000000001 11 107 C17 109 17 109 20.5625 113.4375 C26.10814976539899 119.13936525174825 30.314951524729906 119.55429781158284 38 121 C39.650000000000006 122.32 41.30000000000001 123.63999999999999 43 125 C43 125.66 43 126.32 43 127 C43.66 127 44.31999999999999 127 45 127 C43.583106921764454 119.20708806970447 41.47555157681208 114.2139736868875 35.4140625 108.79296875 C30.382497787698128 105.609279573632 26.193301968680743 104.49863452151217 20.375 103.3125 C14.191364986934971 102.02902083537666 9.697208951615337 100.84860447580768 4 98 C13.306848851940615 94.89771704935313 26.10133656204927 97.66300121076847 35 101 C35.33 101.16499999999999 35.33 101.16499999999999 37 102 C35.906875 99.7725 34.81375 97.545 33.6875 95.25 C33.0726171875 93.99703125 32.457734375 92.7440625 31.82421875 91.453125 C30 87.99999999999999 30 87.99999999999999 27 84 C35.51747917634165 86.83915972544722 41.08746379456784 91.11168001628614 46.0625 98.625 C48.415626333642905 105.15302789333191 48.79682560322027 111.0920705094889 49 118 C49.329999999999984 118 49.66 118 50 118 C49.40671226851572 128.34015760586885 48.76109304790248 138.67088006418055 48 149 C48.66 148.34 49.31999999999999 147.68 50 147 C51.98000000000002 146.34 53.95999999999998 145.68 56 145 C56.66 144.34 57.31999999999999 143.68 58 143 C58.329999999999984 143.66 58.66 144.32 59 145 C59.028941825176986 136.10417345829327 59.046778966746444 127.20835895962648 59.0625 118.3125 C59.06668945312501 117.04567382812499 59.06668945312501 117.04567382812499 59.087890625 110.634765625 C59.089501953124994 109.424658203125 59.089501953124994 109.424658203125 59.09765625 103.30078125 C59.10027465820312 102.18272094726562 59.10027465820312 102.18272094726562 59.113525390625 96.524658203125 C59 91.00000000000004 59 91.00000000000004 58 86 C58.329999999999984 86 58.66 86 59 86 C59 78.41 59 70.82 59 63 C58.670000000000016 63.16499999999999 58.670000000000016 63.16499999999999 57 64 C55.01999999999998 64 53.04000000000002 64 51 64 C51.845624999999984 65.8975 52.69125 67.795 53.5625 69.75 C56 75.99999999999999 56 75.99999999999999 55 80 C54.05124999999998 77.69 53.10250000000002 75.38 52.125 73 C51.609375 71.845 51.609375 71.845 49 66 C48.34 66 47.68000000000001 66 47 66 C46.34 64.68 45.68000000000001 63.36 45 62 C43.349999999999994 61.67 41.69999999999999 61.34 40 61 C39.670000000000016 60.34 39.34 59.68000000000001 39 59 C38.34 59.66 37.68000000000001 60.31999999999999 37 61 C35.68000000000001 59.349999999999994 34.36 57.7 33 56 C34.97999999999999 54.349999999999994 36.96000000000001 52.7 39 51 C35.81826726624186 46.155088791777374 32.62452260951446 41.530653261893065 29 37 C28.174999999999997 37.165 28.174999999999997 37.165 24 38 C23.340000000000003 38 22.680000000000007 38 22 38 C16.627969986109335 32.627969986109335 13.514396617987217 27.00308379581176 9.8125 20.3125 C8.540195312500003 18.0192578125 7.267890625000007 15.726015625000002 5.95703125 13.36328125 C4.981210937499995 11.5933984375 4.005390625000004 9.823515624999999 3 8 C-1.311758664036219 9.437252888012075 -2.195329774815292 11.260439699753732 -5 15 C-10.427180246448586 27.524262107189053 -13.470882669807708 40.46731162779827 -15 54 C-15.329999999999998 54 -15.659999999999997 54 -16 54 C-19.10933348362309 35.6031102218967 -10.891764754634352 16.18270869315971 -1 1 C-0.6700000000000017 0.6700000000000017 -0.3400000000000034 0.33999999999999986 0 0 Z " fill="#8F6DAC" transform="translate(90,20)"/>
<path d="M0 0 C8.517479176341652 2.8391597254472174 14.087463794567839 7.111680016286144 19.0625 14.625 C21.415626333642876 21.153027893331895 21.79682560322027 27.092070509488906 22 34 C22.329999999999984 34 22.659999999999997 34 23 34 C22.381693461639856 46.05697749802272 21.356283708772224 58.00413146901468 20 70 C19.340000000000003 70 18.680000000000007 70 18 70 C18.060281404051665 73.3546601354754 18.149137283792328 76.70881468609508 18.25 80.0625 C18.29640624999999 81.9303515625 18.342812500000008 83.79820312499999 18.390625 85.72265625 C18.993369049519345 90.94257426859372 20.041896013828847 93.7344140519412 23 98 C22.00999999999999 98.66 21.02000000000001 99.32 20 100 C19.670000000000016 100.66 19.340000000000003 101.32 19 102 C21.639999999999986 102.32999999999998 24.28 102.66 27 103 C27 103.32999999999998 27 103.66 27 104 C19.56801618404816 104.40172885491631 17.45583109610601 104.30388739740403 11 100 C6.741723331581738 95.07932473871665 5 91.53425157288967 5 85 C5.941911270508825 81.31798321528368 6.945187027877353 77.65127567273225 8 74 C8.337510177770525 70.66708699451613 8.670741892328365 67.33373834017527 9 64 C9.990673299232355 59.99767987110124 10.98966745565123 55.99740267546687 12 52 C12 50.349999999999994 12 48.69999999999999 12 47 C11.670000000000016 49.31 11.340000000000003 51.620000000000005 11 54 C10.340000000000003 53.34 9.680000000000007 52.68000000000001 9 52 C4 54 4 54 1 56 C-4.2153789755695925 53.6096179695306 -9.220274499580825 51.18648366694612 -14 48 C-12.349999999999994 48 -10.700000000000003 48 -9 48 C-10.319999999999993 46.349999999999994 -11.64 44.69999999999999 -13 43 C-17.262672811059915 30.78801843317973 -17.262672811059915 30.78801843317973 -16 27 C-16 25.680000000000007 -16 24.360000000000014 -16 23 C-10 25 -10 25 -6.4375 29.4375 C-0.891850234600966 35.1393652517483 3.3149515247298638 35.55429781158284 11 37 C11.824999999999989 37.66 11.824999999999989 37.66 16 41 C16 41.66 16 42.31999999999999 16 43 C16.659999999999997 43 17.319999999999993 43 18 43 C16.583106921764454 35.20708806970447 14.47555157681208 30.2139736868875 8.4140625 24.79296875 C3.382497787698128 21.60927957363201 -0.8066980313192857 20.49863452151216 -6.625 19.3125 C-12.808635013065057 18.029020835376656 -17.30279104838462 16.84860447580769 -23 14 C-13.693151148059385 10.897717049353133 -0.898663437950745 13.66300121076847 8 17 C8.659999999999997 17.33 9.319999999999993 17.659999999999997 10 18 C8.906875 15.772500000000008 7.813749999999999 13.545000000000002 6.6875 11.25 C6.380058593749993 10.623515624999996 6.380058593749993 10.623515624999996 4.82421875 7.453125 C3 4 3 4 0 0 Z " fill="#AE95C3" transform="translate(117,104)"/>
<path d="M0 0 C16.380276671190245 16.380276671190252 19.090929323712942 43.56976717628895 19.125 65.375 C19.09308349944007 69.58341857382884 19.054651749771125 73.79181526762399 19 78 C18.670000000000016 78 18.340000000000003 78 18 78 C17.878828124999984 76.5858984375 17.757656249999997 75.171796875 17.6328125 73.71484375 C15.598942143145507 50.575657151632385 12.811772218155284 29.220809681126532 3 8 C3 8.990000000000002 3 9.98 3 11 C1.3499999999999943 10.34 -0.30000000000001137 9.68 -2 9 C-2.990000000000009 10.98 -3.9799999999999898 12.96 -5 15 C-7 19 -7 19 -10 22 C-11.286144455760137 24.365734662736514 -12.510002556573738 26.765854314462956 -13.6875 29.1875 C-14.780624999999986 31.435625 -15.873750000000001 33.68375 -17 36 C-16.553984375 35.481796875 -16.553984375 35.481796875 -14.296875 32.859375 C-13.126406250000002 31.50328125 -11.955937500000005 30.1471875 -10.75 28.75 C-9.58984375 27.40421875 -8.4296875 26.058437499999997 -7.234375 24.671875 C-4.911036304764849 22.034268268694404 -2.4854448255599664 19.48544482555996 0 17 C0.6599999999999966 17 1.3199999999999932 17 2 17 C8.318544054756046 29.099339679320103 12.071366582763517 41.25079552120161 11 55 C10.009999999999991 55.99000000000001 9.02000000000001 56.97999999999999 8 58 C7.009999999999991 57.67 6.02000000000001 57.34 5 57 C4.670000000000016 57.66 4.340000000000003 58.31999999999999 4 59 C3.3400000000000034 59 2.680000000000007 59 2 59 C2.0825000000000102 58.381249999999994 2.0825000000000102 58.381249999999994 2.5 55.25 C3.4172752506986512 43.784059366266675 4.254161361521966 32.13874995683014 1 21 C-2.7570468530231267 25.6963085662789 -4.759712077001808 29.531957957479484 -7.125 35 C-7.808203125000006 36.5675 -8.491406250000011 38.135 -9.1953125 39.75 C-10.498407614811867 42.818760789859965 -11.761794977500955 45.90448744375239 -13 49 C-12.340000000000003 49 -11.680000000000007 49 -11 49 C-11 48.34 -11 47.68000000000001 -11 47 C-9.02000000000001 45.68000000000001 -7.039999999999992 44.36 -5 43 C-4.340000000000003 43.33 -3.680000000000007 43.66 -3 44 C-3.990000000000009 45.650000000000006 -4.97999999999999 47.3 -6 49 C-6.659999999999997 49 -7.319999999999993 49 -8 49 C-8.659999999999997 51.31 -9.319999999999993 53.620000000000005 -10 56 C-11.590570504540608 58.3858557568109 -13.242764251913428 60.73409074588835 -15 63 C-16.97999999999999 61.68000000000001 -18.960000000000008 60.36 -21 59 C-21 58.34 -21 57.68000000000001 -21 57 C-22.319999999999993 56.34 -23.639999999999986 55.68000000000001 -25 55 C-25.659999999999997 53.68000000000001 -26.319999999999993 52.36 -27 51 C-25.989374999999995 48.875625 -24.97874999999999 46.75125 -23.9375 44.5625 C-23.452812499999993 43.4796875 -23.452812499999993 43.4796875 -21 38 C-21.99000000000001 36.35 -22.97999999999999 34.7 -24 33 C-24.330000000000013 31.35 -24.659999999999997 29.700000000000003 -25 28 C-23.680000000000007 27.010000000000005 -22.360000000000014 26.019999999999996 -21 25 C-20.340000000000003 23.68 -19.680000000000007 22.36 -19 21 C-17.680000000000007 20.010000000000005 -16.360000000000014 19.019999999999996 -15 18 C-14.340000000000003 16.68 -13.680000000000007 15.36 -13 14 C-12.340000000000003 14.329999999999998 -11.680000000000007 14.659999999999997 -11 15 C-8 10.000000000000007 -8 10.000000000000007 -7 7 C-5.02000000000001 6.670000000000002 -3.039999999999992 6.34 -1 6 C-1 3 -1 3 -2 1 C-1.3400000000000034 0.6700000000000017 -0.6800000000000068 0.33999999999999986 0 0 Z " fill="#A386BB" transform="translate(209,20)"/>
<path d="M0 0 C-1.8951977193227947 6.583318393437082 -3.446953161747217 9.536343794096695 -8 15 C-13.78936262810791 17.747494128593587 -19.729214502024888 18.813635176058767 -26 20 C-26.659999999999997 20.329999999999984 -27.319999999999993 20.659999999999997 -28 21 C-28.81569754616885 28.613177097576 -26.84598035887015 35.50439924441005 -24.97265625 42.81640625 C-24 47 -24 47 -23.49609375 51.08984375 C-23 55 -23 55 -21 62 C-21.752726408261225 69.5272640826123 -23.472095375263535 73.79726623554217 -29 79 C-34.205377437632876 81.08215097505314 -37.46764752495818 81.32071608550967 -43 81 C-43.66 80.34 -44.31999999999999 79.68 -45 79 C-43.349999999999994 77.35 -41.69999999999999 75.69999999999999 -40 74 C-31.432339429324145 63.71880731518897 -33.888036152642314 53.92657972553312 -35 41 C-34.66999999999999 41 -34.34 41 -34 41 C-34 42.650000000000006 -34 44.30000000000001 -34 46 C-33.34 46.329999999999984 -32.68000000000001 46.66 -32 47 C-32.33000000000001 47.66 -32.66 48.31999999999999 -33 49 C-32.17500000000001 48.83500000000001 -32.17500000000001 48.83500000000001 -28 48 C-28.329999999999984 45.69 -28.659999999999997 43.379999999999995 -29 41 C-28.340000000000003 41 -27.680000000000007 41 -27 41 C-27.444726562499994 39.842421875000014 -27.88945312499999 38.68484375 -28.34765625 37.4921875 C-28.91355468750001 35.96851562500001 -29.479453124999992 34.44484374999999 -30.0625 32.875 C-30.630976562499995 31.366796875000006 -31.19945312499999 29.85859375000001 -31.78515625 28.3046875 C-33 24 -33 24 -32 18 C-25.794466403162062 13.035573122529655 -25.794466403162062 13.035573122529655 -20.8125 12.8125 C-15.070960851103507 11.843149234601896 -13.066392104209001 10.066392104209001 -9 6 C-3 0 -3 0 0 0 Z " fill="#D1C3DD" transform="translate(199,127)"/>
<path d="M0 0 C0.3299999999999841 0.6599999999999966 0.6599999999999966 1.3199999999999932 1 2 C1.990000000000009 1.6700000000000017 2.9799999999999898 1.3400000000000034 4 1 C6.711596179446644 2.5925247403099263 9.37729338605999 4.264978701547392 12 6 C13.319999999999993 6.659999999999997 14.639999999999986 7.319999999999993 16 8 C15.340000000000003 9.97999999999999 14.680000000000007 11.960000000000008 14 14 C15.97999999999999 15.650000000000006 17.960000000000008 17.30000000000001 20 19 C20.659999999999997 21.310000000000002 21.319999999999993 23.620000000000005 22 26 C22.164999999999992 26.329999999999984 22.164999999999992 26.329999999999984 23 28 C21.02000000000001 27.340000000000003 19.039999999999992 26.680000000000007 17 26 C16.835000000000008 25.504999999999995 16.835000000000008 25.504999999999995 16 23 C11 19 11 19 8 18 C7.670000000000016 19.319999999999993 7.340000000000003 20.639999999999986 7 22 C3.5409292175013434 20.27046460875067 3.2155067162455566 16.480769232885052 2 13 C2 13.659999999999997 2 14.319999999999993 2 15 C1.3400000000000034 15.330000000000013 1.3400000000000034 15.330000000000013 -2 17 C-2.329999999999984 17.99000000000001 -2.6599999999999966 18.97999999999999 -3 20 C-4.650000000000006 21.650000000000006 -6.300000000000011 23.30000000000001 -8 25 C-7.009999999999991 25 -6.02000000000001 25 -5 25 C-4.009999999999991 25.329999999999984 -3.0200000000000102 25.659999999999997 -2 26 C-16.37499999999997 32.875 -16.37499999999997 32.875 -22 34 C-23.650000000000006 33.34 -25.30000000000001 32.68000000000001 -27 32 C-27.330000000000013 32.99000000000001 -27.659999999999997 33.97999999999999 -28 35 C-28.99000000000001 30.710000000000008 -29.97999999999999 26.420000000000016 -31 22 C-26 19 -26 19 -20.0625 18.0625 C-14 17 -14 17 -8 13 C-6.252552207412549 9.708296018614362 -4.580677048873952 6.374959104352513 -3 3 C-2.009999999999991 2.009999999999991 -1.0200000000000102 1.019999999999996 0 0 Z " fill="#8C69AA" transform="translate(201,126)"/>
<path d="M0 0 C9.307661724612686 4.653830862306343 15.899357980084858 14.812296236429688 22 23 C22.659999999999997 23 23.319999999999993 23 24 23 C26.75 28.25 26.75 28.25 29 34 C26.353466504315776 39.29306699136845 22.456391020379897 42.18023626824581 18 46 C13.611423078623801 41.6114230786238 11.706454564432661 37.54823185708696 9 32 C7.680000000000007 30.019999999999996 6.359999999999999 28.039999999999992 5 26 C10 28 10 28 13 30 C12.057379279048035 24.344275674288227 10.706385353768837 20.963164159443735 8.125 15.9375 C7.426328124999998 14.564648437499997 6.7276562499999955 13.191796875000001 6.0078125 11.77734375 C4.426797615153333 8.802944151465503 2.733068931632218 5.88844821938703 1 3 C-1.0704364808540845 10.621488620466806 -1.2041671885053944 17.685364743712725 -1.125 25.5625 C-1.106953125000004 27.894414062500005 -1.0889062499999937 30.22632812500001 -1.0703125 32.62890625 C-1.0471093750000051 34.4013671875 -1.023906249999996 36.173828125 -1 38 C-1.9899999999999949 38.16499999999999 -1.9899999999999949 38.16499999999999 -7 39 C-7.659999999999997 38.34 -8.319999999999993 37.68000000000001 -9 37 C-9 23.62395719437039 -5.975517962935953 11.951035925871913 0 0 Z " fill="#A487BC" transform="translate(89,37)"/>
<path d="M0 0 C8.41515867665369 2.4043310504724786 10.455100114036725 5.3916946564547175 16 12 C17.381875000000008 13.485000000000014 18.763750000000016 14.969999999999999 20.1875 16.5 C30 28.08196721311475 30 28.08196721311475 30 33 C30.659999999999997 33 31.319999999999993 33 32 33 C32.66 31.019999999999982 33.31999999999999 29.04000000000002 34 27 C40.08086275586723 18.55435728351773 46.47045632325836 11.220110374957727 54 4 C54.99000000000001 3.009999999999991 55.97999999999999 2.0200000000000102 57 1 C58.650000000000006 0.6699999999999875 60.30000000000001 0.3400000000000034 62 0 C59.23500386043929 5.529992279121416 55.13995069829184 9.400054779675713 51 14 C42.91984100277773 23.470172363177994 35.984783142403444 33.04565057278967 32 45 C31.340000000000003 45 30.680000000000007 45 30 45 C29.298749999999984 43.267499999999984 28.597499999999997 41.53499999999997 27.875 39.75 C23.0650956404522 28.45718106888779 16.232074496085318 19.793178830768113 7.83203125 11.0078125 C0 2.6896551724137794 0 2.6896551724137794 0 0 Z " fill="#FEFFFE" transform="translate(119,228)"/>
<path d="M0 0 C8.534235602101717 2.8447452007005722 14.075154074530559 7.151228030305234 19.125 14.625 C22.201207250224684 23.443460783977457 21.934688199242544 31.195935402272312 19 40 C18.340000000000003 38.68000000000001 17.680000000000007 37.360000000000014 17 36 C12.54570643869826 27.877464682332118 7.8341566853926565 23.1688087323852 -1.1640625 20.42578125 C-2.9661718750000006 20.058398437500003 -4.768281250000001 19.691015625000006 -6.625 19.3125 C-12.808635013065057 18.029020835376656 -17.30279104838462 16.84860447580769 -23 14 C-13.693151148059385 10.897717049353133 -0.898663437950745 13.66300121076847 8 17 C8.659999999999997 17.33 9.319999999999993 17.659999999999997 10 18 C8.906875 15.772500000000008 7.813749999999999 13.545000000000002 6.6875 11.25 C6.380058593749993 10.623515624999996 6.380058593749993 10.623515624999996 4.82421875 7.453125 C3 4 3 4 0 0 Z " fill="#FBFAFC" transform="translate(117,104)"/>
<path d="M0 0 C0.3299999999999841 0.6599999999999966 0.6599999999999966 1.3199999999999932 1 2 C-0.6500000000000057 3.6500000000000057 -2.3000000000000114 5.299999999999997 -4 7 C-6.078031943051229 10.96002313675801 -8.08936059347738 14.956553814103273 -10 19 C-8.762499999999989 18.525625000000005 -7.525000000000006 18.051249999999996 -6.25 17.5625 C0.05956856121400733 15.242805676024261 5.045583852463608 14.892199890895029 11.75 14.9375 C13.477343749999989 14.946523437500005 15.204687500000006 14.955546874999996 16.984375 14.96484375 C17.646953124999982 14.970644531250002 17.646953124999982 14.970644531250002 21 15 C20 17 20 17 15 19 C13.7109375 19.226875000000007 13.7109375 19.226875000000007 7.1875 20.375 C1.1562139644570664 21.45358764869198 -3.6695127988858474 22.864419293462277 -9 26 C-9.990000000000009 26.329999999999984 -10.97999999999999 26.659999999999997 -12 27 C-14.284534327851588 31.569068655703177 -16.125069467882724 36.25017598530292 -18 41 C-22.105871170076824 34.84119324488475 -22.352342301133405 27.849797080950395 -21 20.75 C-16.608700182056367 10.320662932383854 -10.105593551244425 5.0527967756222125 0 0 Z " fill="#FEFEFE" transform="translate(183,103)"/>
<path d="M0 0 C16.380276671190245 16.38027667119026 19.090929323712942 43.569767176288934 19.125 65.375 C19.09308349944007 69.58341857382884 19.054651749771125 73.79181526762399 19 78 C18.670000000000016 78 18.340000000000003 78 18 78 C17.878828124999984 76.5858984375 17.757656249999997 75.171796875 17.6328125 73.71484375 C15.598942143145507 50.575657151632385 12.811772218155284 29.220809681126532 3 8 C3 8.990000000000002 3 9.98 3 11 C1.3499999999999943 10.34 -0.30000000000001137 9.68 -2 9 C-2.990000000000009 10.98 -3.9799999999999898 12.96 -5 15 C-7 19 -7 19 -10 22 C-10.474375000000009 22.8971875 -10.474375000000009 22.8971875 -12.875 27.4375 C-16 33 -16 33 -21 37 C-24 33 -24 33 -25 28 C-23.680000000000007 27.010000000000005 -22.360000000000014 26.019999999999996 -21 25 C-20.340000000000003 23.68 -19.680000000000007 22.36 -19 21 C-17.680000000000007 20.010000000000005 -16.360000000000014 19.019999999999996 -15 18 C-14.340000000000003 16.68 -13.680000000000007 15.36 -13 14 C-12.340000000000003 14.329999999999998 -11.680000000000007 14.659999999999997 -11 15 C-8 10.000000000000007 -8 10.000000000000007 -7 7 C-5.02000000000001 6.670000000000002 -3.039999999999992 6.34 -1 6 C-1 3 -1 3 -2 1 C-1.3400000000000034 0.6700000000000017 -0.6800000000000068 0.33999999999999986 0 0 Z " fill="#9373AF" transform="translate(209,20)"/>
</svg>
