<svg version="1.2" baseProfile="tiny-ps" id="tradevada" xmlns="http://www.w3.org/2000/svg" viewBox="0 -27 512 512"><title>Tradevada</title><path fill="#FEFEFE" d="M0 -27h512v512H0z"/><path fill="#140249" d="m164 30 1 3 2-3 32 37 8 10 1 1 10 12 1 3h3l4-1h2l12-1v1h33v-1l11 1 10 1q7-4 11-12l3-4 5-7 10-11 7-7 17-20-1 5 1-1 4-2-1-3h2q21 34 25 74v3l1 20c-2 23-1 38 13 57l8 14 14 20c3 5 3 5 3 8l-8 1-4-1-7-1 1 2c10 25 10 25 13 38l1 3 1 20q-7 0-11-6l-2-2-4-4-2-2-3-2v2c-2 22-8 57-24 73h-3v-5l-1-3v-2l-2-1-1 3q-8 18-23 31l-2 2q-16 15-35 27c-21 14-21 14-38 31l-4 1q-5 0-7-4-15-16-34-27l-27-19-5-4-14-14-2-3q-8-9-14-19l-3-4v3l-1 7h-3c-12-21-23-47-23-71v-5l-15 14q-2 3-8 3l-1-4c0-20 9-41 17-59h-2q-7 3-16 2l-1-4 2-4 2-2 2-3 17-27 1-2 1-2 1-1 2-4 5-8c7-9 6-18 5-29v-19l3-33 1-3c3-18 10-44 23-57"/><path fill="#2C1A57" d="M350 31h2q21 34 25 74v3l1 20c-2 23-1 38 13 57l8 14 14 20c3 5 3 5 3 8l-8 1-4-1-7-1 1 2c10 25 10 25 13 38l1 3 1 20q-7 0-11-6l-2-2-4-4-2-2-3-2v2c-2 22-8 57-24 73h-3v-5l-1-3v-2l-2-1-1 3q-8 18-23 31l-2 2q-16 15-35 27c-21 14-21 14-38 31l-4 1q-5 0-7-4-15-16-34-27l-27-19-5-4-14-14-2-3q-8-9-14-19l-3-4v3l-1 7h-3c-12-21-23-47-23-71v-5l-15 14q-2 3-8 3l-1-4 2-13v-3l7-24 4 1v-2l5-13 2-2q3-9 13-13l3-1 5-1 1-3q4-4 7-3v-2l3-6v-4l-1-4h2l-1-2v-3l2-2v-2q3-10 11-17l10-13 5-5 1-2 7 3 11 2v3l4 4 10 13 2 3 5 12-9-2c-12-5-26-3-39-2q12 6 26 8 16 2 28 14 8 11 7 23l-2-2q-8-10-20-12-8-1-14-7l-3-5-13-7v-2h-3l-1 3-1-2-8 5-3 1-2 2-3 1-6 4 4 7v2l-3 2 5 2-4 6 3-2 5-2 3 6-13 4 4-1 5-1 3-1h2l1 2 1 2 2 3 3 4 1 4h2v2l2 1h-3q-13-3-25 1l-5 1v2l-3 2-4 2-2 1-7 6 3-1 5-2 2-1q14-7 30-3l8 4v3l-3 1-2 4-5 5q-21 26-22 60h2l1-8 3-1 1-6 8 1v2h3l2-5h2v2c1 24 1 24 8 46l-1-2q-9-27-4-56h1v3c3 34 23 54 46 77l-4-5 6-2-4-9c13 4 23 23 29 34l10 21 4-7q7-16 17-30l2-3 4-5h2l1-2 7-8c10-11 22-25 24-40h-2l-4-1-1 2q-11 25-31 43-13 14-22 30l-7-10q-9-13-21-25c-14-13-29-31-29-52 0-15 0-15 3-18l1 1q2-5-1-10l-5-15q-2-9-8-16l-1-4q5 2 8 6v2h2q11 16 12 35h2l1 4 1 2v5l3 3 2 1 5 5q7 5 15 4h2l6-1h-6v-1l3-1 4-2-2-1c-12-7-12-7-14-14v-14q3 0 5 2 10 7 22 5c9-1 9-1 16-6h2l1-2q3 7 1 15-5 11-17 16l-3 1q9 5 20 3 10-3 15-12l7-19q4-21 18-34h2l-4 11q-8 14-8 29l15-25q6 0 10 5l1 1q23 24 28 56h2q-2-32-20-58l-2-3-10-8-2-2v-2l4-2 3-2c9-5 22-2 32 1l9 4 1-1-7-4-2-1-7-4v-2l-22-4-8-1 4-8-2-1h4v-4q9-3 17 1 16 7 28 19l-2-2-3-5 4 1-2-5h-2v-2l-1-2-2-1q-5-1-8-6l-15-13 5-7-7-5v-2l-2-1q-6-1-11-6l-4-2-2 7v-6q-11 4-18 13l-1 2h-2v2q-4 4-10 5h-5q-9 2-16 9v13l-2-1-1-6v-4l1-7 1-2q5-16 21-24 12-4 26-6 12-3 21-12l-3-10 13 15 2 2 2 1 4 4-6-7 5-1v-2l1-3v-2l3-7h3l-7-2 4-1-3-1q-33-14-61-38l-19-14 8-13 4-4 1-2 6-7 14-17v5l4 2-7 16 9-16 1-2 3-7 11-18 6-10 1-2h2z"/><path fill="#9055BA" d="m164 30 1 3 2-3 32 37 8 10 1 1 10 12 1 3h3l4-1h2l12-1v1h33v-1l11 1 10 1q7-4 11-12l3-4 5-7 10-11 7-7 17-20q0 7-4 14l-1 2-2 3-6 10-1 3-11 19q-1 5-5 8l6-14 1-4-5-2 1-3-32 41 2 1q12 7 22 16 28 23 61 36l-4 1 6 2-1 2-3-2v2l-4 14h-4l6 6-1 2-15-17-5-5 3 8-4 4-2 2q-11 7-23 9-21 1-34 16-8 11-7 24l1 3v-9q8-9 20-10 9-1 15-8l1-2 4-5q4-4 10-6h3v4l2-5q7 2 13 7l4 2v2l2 1 6 4-2 2q-4 3-3 5l5 4 13 12 6 4 1 4h2l2 5h-3l6 7-8-6q-14-13-34-15h-3v2h-2v2l-2 1-2 4-2 4h4q13 0 26 5v2l2 1q10 3 16 10l-16-5q-16-6-32 2l-3 1 7 6c13 10 21 28 25 44l1 3 1 20h-2l-1-4c-6-22-16-44-35-58q-4 2-6 6l-1 2q-4 9-11 18h-1q2-22 13-41-15 13-19 33c-2 11-6 24-16 30q-7 4-14 3h-4q-6 0-10-3l7-5q10-4 14-15 1-15-2-31-4-25-5-50v-10l-1-8h-2l1 2v6q-2 3-6 3h-2l1 1 2 2 2 2c5 7 4 16 5 24l4 29v4l1 2v9l-2-1-3-1-3-2-22-2 8-3v-87l-1-15v-54l-1 3-8 1 1 6-5 1 2 3 2 5 1 2 1 2v8l-1-2-4-9-1-3-2-3-1-3-4-6-1 5h-3v-3l-1-8c-5 0-5 0-9 3l-10 4q-7 1-12 7l-2-1 24-19-3-4 2-1 1-4-3-4-2-3-2-1-4-6-4-4-2-3-1-2-2-1-3-4v5l-4 2-2-2 2 6q-7-6-9-14l-3-6-2-2-14-25-1-4h-2l-1 2-2 5-5 10-2 6q-13 30-13 65v18c1 18-2 30-12 45l-6 9-3 5-2 3-8 13 1 2 10-7 2 1-14 10q13-1 24-6l9-2q-4 4-9 4c-8 3-10 10-14 16l-5 13-3-1 4-12 1-2 2-5h-2q-7 3-16 2l-1-4 2-4 2-2 2-3 17-27 1-2 1-2 1-1 2-4 5-8c7-9 6-18 5-29v-19l3-33 1-3c3-18 10-44 23-57"/><path fill="#4D1F81" d="M205 158c10 1 20 10 27 17q8 9 8 20v25q0 25-4 50c-4 18-4 18 1 35l14 10-2 3 3 1q-5 3-11 2h-4q-12-1-19-11-4-6-4-14h-2v-2q-3-16-11-30l-1-3h-2l-3-3-5-5 2 2q7 13 11 27l3 9v6l-1 2h-2l-1 10v3c-1 18 10 34 22 48l9 8q14 14 24 33l6-9q6-10 14-18h2l1-2 5-6q18-17 27-41l2 2h3l3-4c-1 20-17 36-30 50q-19 21-30 47l-2 4q-4-3-5-8-11-27-31-46h-3l2 1 1 6-5 2 5 6q-7-4-13-11l-5-4q-25-24-31-58l1 31 1 3q0 5 3 10v7q-5-10-7-22v-2l-1-25h-2v2l-1 3-2 1-2-1v-2h-7l-1 2-3 4-1 4-1 2v2h-2q0-35 22-61l5-6 5-5q-15-8-32-4l-14 6-2 1-2-1c12-11 12-11 18-11v-2q15-6 31-3v-2h-2l-4-5-1-3-3-6-3 1h-3l-4 1-8 2q4-4 10-5l4-1 2-1-2-5-7 5-2-1 4-6-5-1 2-3h2l-3-3q-2-2-2-5l7-6 11-7 10-2v2l2 1q9 2 15 10 3 6 9 6l3 1q12 1 20 10l2 3q-1-15-12-26-12-8-27-9-11-1-20-6l-2-3 17-1h5q15 0 27 6-5-13-14-24z"/><path fill="#4D267E" d="m310 158-8 13c-4 6-4 6-6 14l8-5h11l28 1q-8 8-21 8-19 2-33 15-8 12-8 26l1 3v-9q8-9 20-10 9-1 15-8l1-2 4-5q4-4 10-6h3v4l2-5q7 2 13 7l4 2v2l2 1 6 4-2 2q-4 3-3 5l5 4 13 12 6 4 1 4h2l2 5h-3l6 7-8-6q-14-13-34-15h-3v2h-2v2l-2 1-2 4-2 4h4q13 0 26 5v2l2 1q10 3 16 10l-16-5q-16-6-32 2l-3 1 7 6c13 10 21 28 25 44l1 3 1 20h-2l-1-4c-6-22-16-44-35-58q-4 2-6 6l-1 2q-4 9-11 18h-1q2-22 13-41-15 13-19 33c-2 11-6 24-16 30q-7 4-14 3h-4q-6 0-10-3l7-5q10-4 14-15 1-15-2-31l-1-8-1-4-2-29v-15q-3-21 10-38c6-6 16-15 25-15"/><path fill="#0A0239" d="M190 253q5 2 8 6v2h2q11 16 12 35h2l1 4 1 2v5l3 3 2 1 5 5q7 5 15 4h2l6-1h-6v-1l3-1 4-2-2-1c-12-7-12-7-14-14v-14q3 0 5 2 10 7 22 5c9-1 9-1 16-6h2l1-2q3 7 1 15-5 11-17 16l-3 1q9 5 20 3 10-3 15-12l7-19q4-21 18-34h2l-4 11q-7 15-10 33l3-1q4 23-9 42l-2 6c-1 7-9 13-14 19l-6 7-5 5q-11 10-18 25l-7-10q-9-13-21-25c-14-13-29-31-29-52 0-15 0-15 3-18l1 1q2-5-1-10l-5-15q-2-9-8-16z"/><path fill="#5B3788" d="M350 31h2q21 34 25 74v3l1 20c-2 23-1 38 13 57l8 14 14 20c3 5 3 5 3 8l-8 1-4-1-7-1 1 2 4 10 1 4 2 3 1 3 2 9h-3l-1-2-7-19-1-2q-3-12-14-17l-8-2-9-5 1-2 2 1 21 9h3l14 3-1-2h3l-1-2-27-43-1-3-2-3q-1-3-6-4l-2-1h-2l4-1-3-1q-33-14-61-38l-19-14 8-13 4-4 1-2 6-7 14-17v5l4 2-7 16 9-16 1-2 3-7 11-18 6-10 1-2h2z"/><path fill="#2D056C" d="m182 146 7 3 11 2v3l4 4 10 13 2 3 5 12-9-2c-12-5-26-3-39-2q12 6 26 8 16 2 28 14 8 11 7 23l-2-2q-8-10-20-12-8-1-14-7l-3-5-13-7v-2h-3l-1 3-1-2-8 5-3 1-2 2-3 1-6 4 4 7v2l-3 2 5 2-4 6 3-2 5-2 3 6-13 4 4-1 5-1 3-1h2l1 2 1 2 2 3 3 4 1 4h2v2l2 1h-3q-13-3-25 1l-5 1v2l-3 2-4 2-2 1-7 6 3-1 5-2 2-1q14-7 30-3l8 4v3l-3 1-2 4-5 5q-7 8-11 17l-4 5v-3l-2 1h-3l-4-4-2 3v-5h-2v-2l-7-1-1-5-5-1q1 16 5 31l3 12q-5-2-6-8v-3l-1-3-1-3c-4-18-4-18-4-26v-4l-15 14q-2 3-8 3l-1-4 2-13v-3l7-24 4 1v-2l5-13 2-2q3-9 13-13l3-1 5-1 1-3q4-4 7-3v-2l3-6v-4l-1-4h2l-1-2v-3l2-2v-2q3-10 11-17l10-13 5-5z"/><path fill="#461382" d="M256 114h1v56l1 6v99l-5 1h2q14 1 24 7l-1-3-2-15v-3q-4-17-4-35 0-9-8-16l-2-3 7 1c3-4 3-4 3-8l-1-2h2l1-3 1 13v7l4 50 2 13 1 3v16h-1l-1-11-8 5q-15 5-30-1l-7-5-1 11h-1q0-15 2-29 5-26 4-51v-15l1-3q-1-15-12-26c-10-9-10-9-23-14q-4-1-6-6-3-2-7-2l-10-5-1 2-3 5h-2l-1 2-5 8-9 10-10 12-2 2-9 8 1-2v-8l5 2 5-6h-3q-2-3-2-8h-2l-1-6-4 1q1-4 4-5l3-1h2l7-1v-2l-2 1-2 1h-7l3-1 4-2 2-1 9-4 2-1 3 1 5-2 3-2 2-1-5 1 9-7 13-10 7-3 4-4 9-3 7-3 8-3q4 3 4 7l-1 5h3v-7l5 7 1 2 1 2 1 2 6 13-6-15-1-2 1-2 4-1-1-2v-3l3-1h6z"/><path fill="#2C0C5D" d="M186 269q5 1 6 5l1 3 2 3 2 5 2 3 3 4 1 4h2l-1-7 3 4-2 6h-2l-1 10v3c-1 18 10 34 22 48l9 8q14 14 24 33l6-9q6-10 14-18h2l1-2 5-6q18-17 27-41l2 2h3l3-4c-1 20-17 36-30 50q-19 21-30 47l-2 4q-4-3-5-8-11-27-31-46h-3l2 1 1 6-5 2 5 6q-7-4-13-11l-5-4q-25-24-31-58l1 31 1 3q0 5 3 10v7q-5-10-7-22v-2l-1-25h-2v2l-1 3-2 1-2-1v-2h-7l-2 5h-2q9-31 32-52z"/><path fill="#844FAF" d="m164 30 1 3 2-3 32 37 8 10 1 1 10 12 1 3h3l4-1h2l12-1v1h33v-1l11 1 10 1q7-4 11-12l3-4 5-7 10-11 7-7 17-20q0 7-4 14l-1 2-2 3-6 10-1 3-11 19q-1 5-5 8l6-14 1-4-5-2 1-3-32 41 2 1 6 3 2 2 1 1v3l6 4 5 4v2l2 1 6 5c-6 2-6 2-10 1l1-7-2-1-5-2v2h-2l-1-6-10-3-2 5-4-2v5l-3-1-1 6-3 1 1-8-14 33-1 4-1 3-3 3v-46l8 2h9q3-4 2-9l1-2-13-1h-7l-3 9-8 1 1 6-5 1 2 3 2 5 1 2 1 2v8l-1-2-4-9-1-3-2-3-1-3-4-6-1 5h-3v-3l-1-8c-5 0-5 0-9 3l-10 4q-7 1-12 7l-2-1 24-19-3-4 2-1 1-4-3-4-2-3-2-1-4-6-4-4-2-3-1-2-2-1-3-4v5l-4 2-2-2 2 6q-7-6-9-14l-3-6-2-2-14-25-1-4h-2l-1 2-2 5-5 10-2 6q-13 30-13 65v18c1 18-2 30-12 45l-6 9-3 5-2 3-8 13 1 2 10-7 2 1-14 10q13-1 24-6l9-2q-4 4-9 4c-8 3-10 10-14 16l-5 13-3-1 4-12 1-2 2-5h-2q-7 3-16 2l-1-4 2-4 2-2 2-3 17-27 1-2 1-2 1-1 2-4 5-8c7-9 6-18 5-29v-19l3-33 1-3c3-18 10-44 23-57"/><path fill="#19054F" d="M350 58q4 4 3 9 0 4 2 7 3 35-10 66h-3q5 6 11 8l2 1 5 3c8-20 7-41 5-62h4l-1-12 3 9 2 6q3 21 2 43v20h1c0 6 0 6-2 9l-7-2 4-1-3-1q-33-14-61-38l-19-14 8-13 4-4 1-2 6-7 14-17v5l4 2-7 15-10 22 2 2 7 7 4 4 2 2 12 11 1-1-2-1-2-2-2-2q-3-3-3-7l4-7 1-2 2-3 5-9-2 1-3 2-3 1-2 1-2-1 1-2 4-10 2-3 6-15 6-12 2-3z"/><path fill="#D0ACE5" d="M205 158c10 1 20 10 27 17q8 9 8 20v25q0 25-4 50c-2 13-4 25 2 37l-3 1 1 2q-7 0-12-6-8-8-8-20l4-14 1-6q-1-9 1-16c3-9 3-9 3-19q-3-3-8-4h-5q-15-1-25-12-6-9-7-20 13 4 20 13 5 6 11 6 12 1 20 10l2 3q-1-15-12-26-12-8-27-9-11-1-20-6l-2-3 17-1h5q15 0 27 6-5-13-14-24zm105 0-8 13c-4 6-4 6-6 14l8-5h11l28 1q-8 8-21 8-19 2-33 15-8 12-8 26l1 3v-9q8-9 20-10 9-1 15-8l1-2 4-5q4-4 10-6h3q-2 16-14 26-9 5-21 6c-5 0-5 0-10 4q-1 9 2 16l1 13h1l2 5v2l1 5v8q5 11-1 20-6 10-15 13h-6q0-5 5-10c4-10 0-23-1-34l-1-8-1-4-2-29v-15q-3-21 10-38c6-6 16-15 25-15"/><path fill="#090136" d="M128 268h1v8l5 1 1 5 7 1v2h2l1 2 2-1v3l8 1q0 9-3 17l-4 24h2l1-8 3-1 1-6 8 1v2h3l2-5h2v2c1 24 1 24 8 46l-1-2q-9-27-4-56h1v3c3 36 26 60 52 82q14 13 25 28v2h-2v-2l-2-1-9-6-21-15q-27-16-49-42l-5-5h-2l-4-3-2-4-3-3v3l-1 7h-3c-13-23-13-23-14-30l1-3-1-5-1-2v-3l-1-2-1-6q-3-11-3-24z"/><path fill="#2E046F" d="m347 165 13 15 2 2 2 1 4 4-6-7 5-1v-2l1-3v-2l3-7q5 0 6 2l5 7 1 2 2 3q9 19 21 37l3 4h-3l2 2q-21-2-39-11l-10-5-5-3v-2l-2-1q-6-1-11-6l-4-2-2 7v-6q-11 4-18 13l-1 2h-2v2q-4 4-10 5h-5q-9 2-16 9v13l-2-1-1-6v-4l1-7 1-2q5-16 21-24 12-4 26-6 12-3 21-12z"/><path fill="#30046F" d="M365 207v3l2 1 14 6 6 2q5 3 6 8l2 2q7 13 10 28l4 1c5 21 5 21 4 30l-11-10 6 2-1-3v-7h-3l2 7-1-1-12-9-3-3v-2l-2-1-5-3-5-2-12-6v-2l-22-4-8-1 4-8-2-1h4v-4q9-3 17 1 16 7 28 19l-2-2-3-5 4 1-2-5h-2v-2l-1-2-2-1q-5-1-8-6l-15-13q2-7 9-8"/><path fill="#6B369A" d="m319 134 10 4q20 16 44 24l-4 1 6 2-1 2-3-2v2l-4 14h-4l6 6-1 2-15-17-5-5 3 8c-6 6-6 6-11 7l-5-1h-25c-4-1-4-1-8 1l-1 2-6 2q0-8 6-15l1-2 9-11 1-3 4-1-2 3 2 3 3-1-2-7 2-1 3-1 3-1 5-3-2-2-3-3-2-2-4-4z"/><path fill="#42246F" d="m110 245 2 2v9l-1 2v6h2l1-3h2q-2 8-7 15l3 1-1 2h2l1-2 4-3v-2l-5 3q2-5 6-7l9-8 4-3 2 1-2 3 3-1 5-2 2-1q14-7 30-3l8 4v3l-3 1-2 4-5 5q-7 8-11 17l-4 5v-3l-2 1h-3l-4-4-2 3v-5h-2v-2l-7-1-1-5-5-1q1 16 5 31l3 12q-5-2-6-8v-3l-1-3-1-3c-4-18-4-18-4-26v-4l-15 14q-2 3-8 3l-1-4 2-13v-3z"/><path fill="#F7F6F9" d="M319 323q2 7-2 13-10 19-26 35-19 22-31 49l-2 4q-4-3-5-8-11-25-29-44l-6-6-4-4v-3h-2l-4-6-2-3c-9-14-9-14-10-23l1 2q2 3 6 3l1-4 1 2q10 22 28 38 14 14 24 33l6-9q6-10 14-18h2l1-2 5-6q18-17 27-41l2 2h3z"/><path fill="#3E1A71" d="m381 260 1-1-1-2 9 5v2l3 1v2l2 1 6 5 2 2 2 1-2-7 4-1 1 3-1 2 3 9-7-4 2 2 8 9q-7 0-11-6l-2-2-4-4-2-2-3-2v2l-2 16-3-1v-11h-3l-2-1v2l-4 1-1 5-4 1v2q3 21-1 41h-1v-18l-1-24v2l-1 3-2 1-2 3-2-2 1 3v7l-1-3q-4-13-12-24l-2-2q-5-9-13-13l-2-2v-2l4-2 3-2c12-6 29-1 41 5"/><path fill="#090136" d="m235 285 2 1q13 10 27 6c7-1 7-1 13-5h2l1-2q3 7 1 15-5 11-17 16l-3 1 7 4v6l14-1-1 3q-12 10-27 10-14-2-22-12v-2h3q3 1 5-2l6-2 3-1 2-1h-8v-1l3-1 4-2-2-1c-12-7-12-7-14-14v-14z"/><path fill="#542588" d="m179 192 3 1h-2c5 16 5 16 17 27l15 3c11 2 11 2 14 6v7l-2-4-2 1-9 9-4 4-12-5-6-3-4-2c-14-7-14-7-28-5l-3 1-5 1q4-4 10-5l4-1 2-1-2-5-7 5-2-1 4-6-5-1 2-3h2l-3-3q-2-2-2-5l7-6 11-7q3-2 7-2"/><path fill="#9068B7" d="m164 56 4 2 1 3 3 1v2h2l3 3 2 3 2 2 2 2 5 7 2 2 5 6v-4l7 12 1 2c4 8 4 8 4 12l-8 9-3 2q-14 13-29 24l-2-1 1-3 5-2 10-8 7-4-8-16-1-3-4-7 8 2 2 1 2 1-2-3-4-10-9-21-1-2-7-11-1 4v2q-2 11-2 24v4q0 11 2 21v8l-1-2-3-5-3 1v-3l-4-2-2 1-1 5h-1c0-15 0-32 8-45l1-3q2-7 7-13"/><path fill="#5D3A79" d="M273 196h1l1 13v7l4 50 2 13 1 3v16h-1l-1-11-8 5q-15 5-30-1l-7-5-1 11h-1q0-17 3-35l1 2h2v-3l2-13 2 3 3-2h6v-3h3l1-4 2 33-5 1h2q14 1 24 7l-1-3-2-15v-3q-4-17-4-35 0-9-8-16l-2-3 7 1c3-4 3-4 3-8l-1-2h2z"/><path fill="#15054A" d="M224 335q4 3 5 7l5 9h5l8 3 2 3 5 3q4 2 5 7l-1 8 2-1 5-2v-4l3 1 7-9v3q5 0 9-5l2-2 1 3h3l1-2 5-7 2-2 1-2 1 4-2 3-2 2-2 2-2 2-12 13q-13 14-22 30l-7-10q-11-15-23-27c-8-7-8-7-10-11l1-5 7 3 2-6-3-7z"/><path fill="#330C70" d="M140 143h1l1 18 13-2v2l-3 1-4 1h-2l-5 2-1 2 3-1 1 7h2l2 8 4-1q-2 6-7 8v-2l-3 1 1 2-1 4 2-2 13-13c-1 7-1 7-3 10v4h-2l2 10-3 2v2l-3 4q-20 11-41 12l15-11-2 2-3 2-3 2-3 1-2-1 5-10 2-3 2-4 4-6 2-4 8-14 2-2q5-7 5-17z"/><path fill="#310473" d="m182 146 7 3 11 2v3l4 4 10 13 2 3 5 12-9-2q-12-4-26-3l-3 1h-5c-6 0-6 0-10-2l-2-2-3-1v3h-3q-1-4 1-9l5-5 3-4 2-1 5-8 5-5z"/><path fill="#090235" d="M341 308h1q4 26-4 51h-2v2q-1 8-8 13l-2 1q-12 10-25 18h2v3l-9 2-20 14-8 5c3-15 25-31 36-40q15-13 25-28l1-2q12-18 13-39"/><path fill="#B88AD4" d="M350 55q4 4 6 10l2 3 1 6 2 2-1 2 2 10q3 11 2 22l-2-2-5 1-1-2-2 10h-1v-2l1-27V77l-1-4-1-10-2-4-9 16-1 2-3 8-1 3-8 18 2-1 3-2 3-1 2-1 2 1-2 4-1 2-4 6-2 3-2 3-1 6q2 4 6 6l2 2 2 2-3 1-7-7-2-1-11-11-4-3-4-6 4-9 1-2 1-2 1-2q1-2 5-3l4-5 15-18 2 1 3-3 1-1 1-5z"/><path fill="#F5F3F7" d="m188 252 7 9 1 2q5 10 7 21l1 3 1 9h-2l-4-7-1-2-10-17c-12 4-21 19-27 29q-7 15-11 32h-2q0-35 22-61l5-6 5-5q-15-8-32-4l-14 6-2 1-2-1c12-11 12-11 18-11v-2c14-3 28-5 40 4"/><path fill="#F5F4F7" d="M373 253c9 4 9 4 11 8l-16-5q-16-6-32 2l-3 1 7 6c13 10 21 28 25 44l1 3 1 20h-2l-1-4c-6-22-16-44-35-58q-4 2-6 6l-1 2q-4 9-11 18h-1c1-17 6-35 19-46 14-9 31-4 44 3"/><path fill="#F8F6F9" d="M205 158c10 1 20 10 27 17q11 16 8 35l-4 12-3-1-2-6q-4-12-14-19-11-4-23-6-11-1-20-6l-2-3 17-1h5q15 0 27 6-5-13-14-24z"/><path fill="#F8F7FA" d="m310 158-8 13c-4 6-4 6-6 14l8-5h11l28 1q-8 8-21 8-19 2-33 15l-7 15h-4q-4-8-3-17v-3q0-16 12-28c14-13 14-13 23-13"/><path fill="#2D036E" d="m325 271 4 1 3 6 2 3 1 3 2 3q3 7 2 15v7h1q1 7-2 13l-2-2-2 5-8-2h-2l-3 3v-12l-1 2-4 1-1-3v2q-4 17-12 30l-2-1 3-8q10-18 7-38h-2q0-4 3-6l7-11 2-3z"/><path fill="#2D056A" d="M128 268h1v8l5 1 1 5 7 1v2h2l1 2 2-1v3l8 1q0 9-3 17l-4 24h2l1-8q4 5 6 11l1 2 1 2 1 2 1 2-1 2-2-2 2 6-6-9-2-1v3l-1 7h-3c-13-23-13-23-14-30l1-3-1-5-1-2v-3l-1-2-1-6q-3-11-3-24z"/><path fill="#14024B" d="M338 281c14 7 19 23 24 37q2 9-3 18l-2 2q-9 16-22 29-2-5 1-8h2v-3l3-10 2-26v-2l-2-19-1-3-3-10-1-2z"/><path fill="#2C066B" d="M186 269q6 3 8 9 1 5-1 12l-2 14h-2v-8l-8 2-4 6h-4c-1 20-1 20 1 40l1 2q0 6 3 10v7q-5-10-7-22v-2l-1-25h-2v2l-1 3-2 1-2-1v-2h-7l-2 5h-2q9-31 32-52z"/><path fill="#421B77" d="m327 269 9 6 3 3 5 6-5-2-2 3 2 6q6 14 5 29h-1l-1-5-1 3c-7 27-23 44-43 64l-2-1 18-18-2-2-4 4-2-4h-4l3-3 1-2 4-4q5-5 6-12l2-5q3-4 1-10l-2 3h-4v-10l1-3v-2l4 1v2h2l2-4v12l3-4 1 3 6-1 1 2 3-6 2 1v-2h-1l1-4q2-15-5-31l-1-4-6-8z"/><path fill="#6C518E" d="M350 31h2q21 34 25 74v3l1 20c-2 23-1 38 13 57l8 14 14 20c3 5 3 5 3 8l-8 1-4-1-7-1 1 2 4 10 1 4 2 3 1 3 2 9h-3l-1-2-7-19-1-2q-3-12-14-17l-8-2-9-5 1-2 2 1 21 9h3l14 3-1-2h3l-1-2q-13-18-23-37l-2-3-1-3-6-9v-6h-1v-25l-2-41-1-1-1-6q-4-27-19-48z"/><path fill="#26055A" d="M386 277h1l-1 13h2l-2 16-1 3c-10 31-10 31-19 37q-2-6 0-13 1-20-5-40l3 2 4-2v-7q5 8 3 18v21-39h5l1-5 4-1v-2l4 1z"/><path fill="#340677" d="M172 255q4 0 8 3v3l-3 1-2 4-5 5q-7 8-11 17l-4 5v-3l-2 1h-3l-4-4-2 3v-5h-2v-2l-7-1-1-5-5-1v-5l7 1v-7l-2-2h10l1 6h2v2h2v4l1-2c4-8 11-20 22-18"/><path fill="#130248" d="m368 78 3 9 2 6q3 21 2 43v20h1c0 6 0 6-2 9l-7-2 4-1-3-1q-21-8-38-21l4-3 14 8 12 7c8-20 7-41 5-62h4z"/><path fill="#5D4188" d="m164 30 1 3 2 1h-3l-1 2-2 5-5 10-2 6q-13 30-13 65v18c1 18-2 30-12 45l-6 9-3 5-2 3-8 13 1 2 10-7 2 1-14 10q13-1 24-6l9-2q-4 4-9 4c-8 3-10 10-14 16l-5 13-3-1 4-12 1-2 2-5h-2q-7 3-16 2l-1-4 2-4 2-2 2-3 17-27 1-2 1-2 1-1 2-4 5-8c7-9 6-18 5-29v-19l3-33 1-3c3-18 10-44 23-57"/><path fill="#15034B" d="m170 229 2 5 4 5 1 4h2v2l2 1h-3q-13-3-25 1l-5 1v2l-1 1-7 3-3 2-10 6h-2l-1 3-5 4-3 2-2 2 4-1v2l-4 4-2 2-2 1v-3h-2q2-7 7-13l2-2 4-6 2-2q14-18 36-25l3-1z"/><path fill="#F1EEF5" d="M180 193q13 4 20 13 5 6 11 6 12 1 20 10 4 9 0 17l-3 9-1 3-5 13-2-1 4-23 1-11q-3-3-8-4h-5q-15-1-25-12-6-9-7-20"/><path fill="#1D075A" d="M359 231q16 7 28 19l3 2 10 13 2 2q4 4 4 10l-1-1-12-9-3-3v-2l-2-1-5-3-5-2-12-6v-2l-22-4-8-1 4-8-2-1h4v-4q9-3 17 1"/><path fill="#2D0966" d="M321 66v5l4 2-7 15-10 22 2 2 11 11-2 2-2-1-1 3-4-2-1-5h-2q-12-2-21-11l8-13 4-4 1-2 6-7z"/><path fill="#30066D" d="M371 165q5 0 6 2l5 7 1 2 2 3q9 19 21 37l3 4c-11-2-20-11-28-18l-7-6-7-9-5-7 5-1v-2l1-3v-2z"/><path fill="#340578" d="m146 211 2 1-1 3-1 5-3 5h-2l1 2v2l-5 5-2 3-1 2h-3l2 5-2 2-3 4-6 8-2 2-6 6 2-5-1 2-4 1v-19l3 1v-2l5-13 2-2c5-10 5-10 12-13l10-4z"/><path fill="#070130" d="m235 285 2 1q13 10 27 6c7-1 7-1 13-5h2l1-2 1 7v3q0 4-3 6l-2 2q-4 4-9 3v-4l-1 5h7q-7 6-16 9-7-2-13-7v-1h6l-3-7 1 3v2q-6 0-11-4l-1-5h-2v-8z"/><path fill="#582C8E" d="m359 77 1 2h2q5 13 5 26v2q0 23-5 44l-2 2-7-4-1-1q-7-3-12-8h3l5-11 1-2 3-9v-3l2-1 1-7 1-4v-3h1v3l1 4 2 1 3-1-2-21z"/><path fill="#361569" d="M350 58q4 4 3 9 0 4 2 7v12l-1 3-1 18-2-2-2 1q-4 3-8 3v-3l-6 8h-2l6-12-2 1-3 2-3 1-2 1-2-1 1-2 4-10 2-3 6-15 6-12 2-3z"/><path fill="#F7F5F9" d="M335 193q-2 16-14 26-9 5-21 6l-10 4 1 10v14h-2c-9-22-9-22-7-29q8-9 20-10 9-1 15-8l1-2 4-5q5-6 13-6"/><path fill="#3C1B6E" d="M164 58q9 11 14 25l6 13 4 11-12-5 1 2 4 8 2 3 1 2 2 3 2 5-4-3-2-3c-4-10-4-10-11-19l-1 4h-7v5h-1l-2-21v-3c-1-20-1-20 4-27"/><path fill="#AF75D2" d="M292 100q0 5-4 9l2 1 6 3 2 2 1 1v3l6 4 5 4v2l2 1 6 5c-6 2-6 2-10 1l1-7-2-1-5-2v2h-2l-1-6-10-3-2 5-4-2v5l-3-1-1 6-3 1 1-8-14 33-1 4-1 3-3 3v-46l8 2h9l5-7z"/><path fill="#552B83" d="M164 34h2l1 2 9 15 9 16 2 4 6 11 3 5 1 3-1 2-1-1-19-23-2-4h-2l-3-3-2-2-1-2q-3 1-5 4l-1 3-2 3-1 8h-2l-4 4-4 3c-2-12 5-24 10-34l2-4z"/><path fill="#56268B" d="m339 206 23 1-5 6v2l5 4 13 12 6 4 1 4h2l2 5h-3l6 7-8-6q-14-13-33-15-8 1-14 4l-6 2-2 1h-5l18-8 6-3-1-2-1-3-1-4z"/><path fill="#4B3871" d="m363 325 2 7 2 1v3h-2v4l1 2 1 3 3-3-2 5-4 1v-5l-1-3v-2l-2-1-1 3q-8 18-23 31l-2 2q-16 15-35 27c-21 14-21 14-38 31l-4 1q-5 0-7-4-14-14-30-24h5l19 15 8 6 2 5 4-1 1-2h2v-2l4-4 3-2 3-2 5-4 3-2 4-4 15-9 4-2-3-3 1-1q15-9 27-20l3-2q20-19 32-45"/><path fill="#BD80E0" d="M258 220h1v26l4-1 9 1v-9h1l3 17v5l2 9v2l1 13-2-1-3-1-3-2-22-2q4-2 9-2z"/><path fill="#B68BD3" d="M168 63h2v2h2l4 5 9 10 2 3 5 5q8 9 7 21c-2 10-2 10-5 13l-2 1-2 2-1 1-14-25 12 5-2-3-4-10-11-23z"/><path fill="#8D59B6" d="m180 202 3 3 1 6h2l4 4q10 9 24 9 7 0 12 5v7l-2-4-2 1-9 9-4 4q-5-1-8-5l-9-7q-5-5-7-13l-1-4c-4-11-4-11-4-15m152 8q0 15-11 25l-4 1v2l-1 1 2 1-4 2-2 1-4 1v2h-2v-3l-5-2v-2l-2-1-5-3v-2l-3-1-1 5h-1v-8q6-6 15-6 13 0 21-9l2-2z"/><path fill="#6F3F9F" d="m319 134 10 4q20 16 44 24l-4 1 6 2-1 2-3-2v2l-4 14h-4l6 6-1 2-15-16-5-7-2-4h-2l-3-3-1-3-3-4q-4-6-10-9l-4-4-2-2z"/><path fill="#15024C" d="M160 78h1v12l1 3v7l1 4h7l-1-4 3-1 13 23 3 3v3l-5 5-3 2-7 5-4-2-3-7-1-2c-6-17-5-34-5-51"/><path fill="#130149" d="M224 335q4 3 5 7l5 9h5l8 3 2 3 8 6-1 5-2-1h-3l-2 2q-4 0-6-3l1 2 5 8 2 3 1 6-7-1-5-6q-5-7-12-13c-8-7-8-7-10-11l1-5 7 3 2-6-3-7z"/><path fill="#D9BEEA" d="m166 30 22 24 8 10 13 15 9 10 1 4h3l4-1h2l12-1v3l-17 3q1 4 4 7l1 3 2 2-1 2-5-1 2-3-19-23-1-2-7-8v5l-4 2-2-2 2 6q-7-6-9-14l-3-6-2-2-5-11-2-3-4-6c-5-8-5-8-4-13"/><path fill="#350770" d="M314 193v2h2l2 7 3-2q-1 5-5 8h-2v2q-4 4-10 5h-5q-9 2-16 9v13l-2-1-1-6v-4l1-7 1-2q7-18 24-25 5-2 8 1"/><path fill="#2E0769" d="m195 69 11 11 3 4 1 2 9 10 1 2 4 5-1 2h-3q0 3 2 5l1 1-5 5-3 2-6 2-7-4 2-2 2-6-5-11-1-2-5-9-1-3-1-2-1-2 1-2 3 3 2-1v-5l-3-3z"/><path fill="#663996" d="m191 135 2 1-2 2-5 6-2 2h-2l-1 2-3 5h-2l-1 2-5 8-9 10-10 12-2 2-9 8 1-2v-8l5 2 5-6h-3q-2-3-2-8h-2l-1-6-4 1q1-4 4-5l3-1h2l7-1v-2l-2 1-2 1h-7l3-1 4-2 2-1 9-4 2-1 3 1 5-2 3-2 2-1-5 1 9-7z"/><path fill="#5F2A91" d="M337 192q7 2 13 7l4 2v2l2 1 4 3-21-1 1 3 2 5 1 2 3 11c-21 10-21 10-25 10v2l-7 1 1-2h2v-2l3-2q8-6 10-16v-2l2-6-4 2 1-2 4-13h2z"/><path fill="#350974" d="M149 103h1l1 8 2-1 1 2h3v3h2v-6h1l1 4 1 3v6h2l1 3 2 5 1 2v2l1 2 3 5-6 1v2l-1 3-5 2v2l-6 2q-7-17-6-36v-4z"/><path fill="#290563" d="M320 327v6l-1 2-3 9q-2 6-7 10l-3 4-3 3 5-3v4l1 2 3-4 3 3-2 2-7 7-3 2-2 3-2 2-3 4-2 1-7 6-2 2-3 3-2 2-6 6-2-1q0-9 6-17l2-2 4-5h2l1-2 7-8q17-18 26-41"/><path fill="#130249" d="M156 178q1 6-2 10v4h-2l2 10-3 2v2l-3 4q-20 11-41 12l10-7q22-15 39-37"/><path fill="#13024A" d="M168 314h2v2c1 24 1 24 8 46l4-1 1 5-2 2-13-15-5-5h-3l-3-6 1-2 2 2-1-2-3-6-1-3-1-2-1-2-1-5h2l1-6 8 1v2h3z"/><path fill="#CEAAE3" d="m292 270 3 6h2q4 12-1 22-6 10-15 13h-6q0-4 3-7 5-9 3-21v-6l2-5h6z"/><path fill="#CDB8D9" d="M346 32v6q0 4-3 8l-1 2-2 3-6 10-1 3-11 19q-1 5-5 8l6-14 1-4-5-2 1-3-18 22-9 10v-2l-19-4-1-3 11 1 10 1q7-4 11-12l3-4 5-7 10-11 7-7 11-14z"/><path fill="#320F67" d="m181 330 7 9 10 11 2 1 10 8-1-2q-6-6-9-13l2-2 1 2 2 3 2 3 4 5 1 4h2v3l2 1 5 4-1 3 2 3v4l-5 2 5 6q-7-4-13-11l-5-4-19-24v-6l-3-2z"/><path fill="#3B0580" d="M365 207v3l2 1c6 2 6 2 8 5l7 3v2l3 1q5 0 7 5 3 4 2 8 0 5-4 6l-2 1 2 3 1 3-1 2-8-6 2-1 2 1-2-5h-2v-2l-1-2-2-1q-5-1-8-6l-15-13q2-7 9-8"/><path fill="#582D8B" d="M154 207c5 5 5 5 5 8l-3 2 5 2-4 6 3-2 5-2 3 6-6 2-4 1-5 1-2 1-1 3-6 3-10 7-6 4 2-3 2-5-1-2h3v-2q1-4 5-7l2-1v-4l4-4v-3l1-6-4 1q5-6 12-6"/><path fill="#4C1686" d="M175 300h1l1 4v4l1 3v2l1 2 1 6q5 0 9-3h2l3 7v2l2 11h2l1 2q5 10 12 19-4 1-6-3l-2-1-2-2-2-2q-10-9-17-19l1 6 3 2-2 4q-9-15-10-34v-3z"/><path fill="#EBDCF2" d="M319 323q2 7-2 13-11 20-26 36l-5 6h-3v-2l-4-1q1-5 5-8 19-18 28-42l2 2h3z"/><path fill="#3D1576" d="M199 195c6 1 6 1 8 3h-2l2 5 8 1v-1h-5l-1-5 8 2-2-4q9 3 13 10 6 10 6 21l-2-2q-8-10-20-12-8-1-14-7l-2-4z"/><path fill="#42107F" d="M376 258v2h-4l-1 3h-2l-1 2-4 3 1 4-7-8-2-2-1-2v2h-3v2l-2 2 1 3-4 2 2 4-2-2-12-10-2-2v-2l4-2 3-2c10-5 26-2 36 3"/><path fill="#37097A" d="M353 258q13 10 16 25l-1 10-2 1-2 3-2-2 1 3v7l-1-3q-4-13-12-24-3-4-3-9l3-1-1-4h3v-2l2-1z"/><path fill="#9266B7" d="m338 68 1 3-2 2-18 23 2 2v9l2-4h1v6l1 3q-1 5 3 8l-3 5h2l3 4 8 8q-6-1-10-7l-2-1-13-13-3-3-3-4 4-9 1-2 1-2 1-2q1-2 5-3l4-5z"/><path fill="#8266A2" d="M350 31h2q21 34 25 74v3l1 20v15c-1 15-1 15 5 29q3 2 2 5l-1 2-4-6-2-4-2-2-1-2v-6h-1v-25l-2-41-1-1-1-6q-4-27-19-48z"/><path fill="#14034B" d="m291 331 1 3-1 2h2l1 4-2 3h-2l-1 3q-1 5-6 6l-3 5h3v4q-4 4-9 4v-3l-6 8-3-2v4q-4 4-7 3v-11q2-3 5-4l1-2 2-1 5-4 6-6 10-9 1-2h2z"/><path fill="#300B6C" d="M338 281c11 5 15 15 20 25l1 2q3 7 3 13l-5-6-1-3-1-5-1 4-4 1v4l-2 1-3 3v10c-1 13-1 13-3 19h-1l1-13q4-26-5-50l-1-2z"/><path fill="#4F1C87" d="M321 312h1v12l3-4 1 3 6-1 1 2 3-6v7q-12 22-32 37l-2-1 3-3 1-2 4-4q5-5 6-12l2-5q3-4 1-10l-2 3h-4v-10l1-3v-2l4 1v2h2z"/><path fill="#AB83C8" d="m238 213 2 8v8l-2 29h-2l-1 5-2-2-3 2-4 1-2-2-2 3q2-11 6-20l4-17 2-6h2z"/><path fill="#665087" d="m164 30 1 3 2 1h-3l-1 2-2 5-5 10-2 6q-13 31-13 65v18c0 17-1 29-12 43l-2-4 3-5c8-11 8-20 8-32l-1-16v-4q0-16 3-32l1-3c3-18 10-44 23-57"/><path fill="#30066D" d="m170 229 19 7 2 1 13 6-2 1-2-1 1 4-6 1-1 3 4 3-2 2-2-2h-2q-5 0-8-3-6-4-13-4h-16q4-4 9-3l15 1v-2h-2l-4-5-2-3z"/><path fill="#250B59" d="m110 245 2 2v9l-1 2v6h2l1-3h2q-2 8-7 15l3 1-1 2h2l1-2 4-3v-2l-5 3q2-5 6-7l9-8 1 3 2 1-3 3h-3v2l-1 5-2 1-12 11q-2 3-8 3l-1-4 2-13v-3z"/><path fill="#724B95" d="M215 284h1v2q3 12 11 20 4 3 7 3l1-2q6 1 11 5l3 2 2 1-2 3 3 1q-5 3-11 2h-4q-9 0-16-8-9-13-6-29"/><path fill="#481784" d="M321 66v5l4 2-7 16-1 2c-4 8-4 8-8 11h-3v-2l-7-2q0-8 7-14l3-3 1-2 7-8 2-3z"/><path fill="#8458AB" d="M299 290h1q1 14-7 24-8 7-19 7h-4q-6 0-10-3 3-4 7-5l7-4 1 1q6 2 11-3 9-6 13-17"/><path fill="#14024A" d="M372 198c6 0 6 0 9 2l3 4q10 9 21 15l3 2v1q-22-2-42-13 0-5 4-8z"/><path fill="#5D4A81" d="m163 347 9 10q17 19 37 32l2 1 2 2 5 4-2 1 5 5q-6 0-10-5l-3-1-19-15-3-2-15-15-3-3-2-3-3-3q-3-3-3-7z"/><path fill="#542689" d="M224 230h1v8l-1 8h-2l-1 4v4l-1 3-1 6-2 1v-3h-2v15q-3-3-4-7h-2l-1 2-1-4h2l1-4v-3l-1-5v-11q6-7 13-12h2z"/><path fill="#612995" d="M255 242h1v16l-5 2v2l-2 1-5 3-1 1h-3v7l-1 3h-2v6l5-1-1 3 1 5-7-4-1 11h-1q0-17 3-35l1 2h2v-3l2-13 2 3 3-2h6v-3h3z"/><path fill="#52208B" d="m371 165 5 2 2 7 2 3q2 8-1 15h3l1 9 3 3 2 3q-6-3-9-7l-2-2-4-4-2-2-5-7-4-5 5-1v-2l1-3v-2z"/><path fill="#361E66" d="M143 292h1v17l1 7v3l1 11 1-7h1v8h2l1-8q4 5 6 11l1 2 1 2 1 2 1 2-1 2-2-2 2 6-6-9-2-1v3l-1 7h-3c-13-23-13-23-14-30l1-3v2l1 2 3 1 3 7 1 2v-2l-1-10v-4q-2-10 1-21"/><path fill="#8553B0" d="M350 55q4 4 6 10l2 3 1 6 2 2-1 2 2 10q3 11 2 22l-2-2-5 1-1-2-2 10h-1v-2l1-27V77l-1-4-1-10-2-4-3 4-3-2z"/><path fill="#9263BA" d="m339 206 23 1-5 6 2 4 2 2-6-1q0 5 2 6l2 2-9-4v3q-4 6-11 7l-3 1-5 2-5 2h-5l18-8 6-3-1-2-1-3-1-4z"/><path fill="#A676C8" d="m169 37 22 25 2 3 4 7 1 2 1 4-1 2-3 1-2-2 2 6q-7-6-9-14l-3-6-2-2-10-19-3-5z"/><path fill="#0E0438" d="m172 185 14 2 13 3q9 1 17 5l1 5-3 1-2-2-2 1v2h6l-1 3h-6l-4-4v-4l-6-1-2 6-2-1-13-7v-2l-3-1q-4-1-7-6"/><path fill="#7141A1" d="m191 135 2 1-2 2-5 6-2 2h-2l-1 2-3 5h-2l-1 2-5 8-11 13-5 4 4-7h-2v-3h3l-1-2v-8l-2-1 6-3-1-2 3-2 3 1 5-2 3-2 2-1-5 1 9-7z"/><path fill="#9D65C5" d="M257 111h20c2 10 2 10-1 14l-4 1-3-1h-10v46l-2-4z"/><path fill="#6E6083" d="m340 366-1 4-2 2-2 2-3 2-3 2-29 22q-22 13-38 31l-4 1q-5 0-7-4-14-14-30-24h5l19 15 8 6 2 5 4-1 1-2h2v-2l4-4 3-2 3-2 5-4 3-2 4-4 11-7q13-7 25-17l3-1v-2l5-4z"/><path fill="#B99BD2" d="m196 327 1 2q2 3 6 3l1-4 1 2q6 14 14 24 4 2 3 6v2l-4 1-2-2-2 1v-3h-2l-4-6-2-3c-9-14-9-14-10-23"/><path fill="#52247C" d="M273 196h1l1 13v7l4 50 2 13 1 3v16h-1v-3l-3-23-1-3-1-4-2-11v-2l-1-14-1-3v-7q0-9-8-17l-2-3 7 1c3-4 3-4 3-8l-1-2h2z"/><path fill="#080234" d="m222 388 3 3h2c9 3 19 18 24 26v2h-2v-2l-2-1-5-3-2-2-2-1-24-17 1-6q4-2 7 1"/><path fill="#3A1575" d="m389 251 1 1 2 2 2 2 5 2 2-6h2v3h2v2l4 1c5 21 5 21 4 30l-11-10 6 2-1-3v-7h-2q-5-2-9-8l-1-2z"/><path fill="#9766BF" d="m180 202 3 3 1 6h2q4 2 5 5 5 5 11 6v2l4 1-3 1v2h-3v2l-3 7q-10-5-12-16l-1-4c-4-11-4-11-4-15"/><path fill="#46147F" d="M140 143h1l1 18 13-2v2l-3 1-4 1h-2l-5 2-1 2 3-1 1 7h2l2 8 4-1q-2 6-7 8v-2h-6l-3-8-3 1 4-11q3-6 2-13z"/><path fill="#2E195B" d="M320 281h1l4 17 2-1-2 16-2-1v-6h-1l-1-6-1-3h-6v13q0 19-11 36l-2-1 3-8q10-18 7-38h-2q0-4 3-6l5-7z"/><path fill="#341D55" d="M222 246h1l-2 14 1 5-3 10q-6 16-1 31l1 3h-2q-3-6-3-13h-2v-2q0-14-7-27h2l2 2h2l1-2 1 5 1-5 1-6h2l1 2 1-3v-4l1-2z"/><path fill="#F0E0F6" d="M168 63h2v2h2l4 5 11 13 3 5-1 5v9l1 5-3-1-4-9-3-8-1-2-9-17z"/><path fill="#41286F" d="m381 257 9 5v2l3 1v2l2 1 6 5 2 2 2 1-2-7 4-1 1 3-1 2 3 9-7-4 2 2 8 9q-7 0-11-6l-2-2-4-4-2-2-3-2v3q1 3-2 5v-5h-2v-3l-2-1h3l-2-10-4-1v-2z"/><path fill="#9B70C2" d="M342 41v7l-2 3-1 2-5 8-12 22q-1 5-5 8l6-14 1-4-5-2 10-16 4-3 1-2z"/><path fill="#430D81" d="M154 207c5 5 5 5 5 8l-5 4-7 6-3 3 2 4h-2q-4 3-7 8l-4 6-2 2-1 1-2-1 2-2 2-5-1-2h3v-2q1-4 5-7l2-1v-4l4-4v-3l1-6-4 1q5-6 12-6"/><path fill="#310B6C" d="M224 335q4 3 5 7l5 9h5l8 3 2 3 8 6-1 5-2-1h-3l-2 2q-5-1-9-6l-5-7-2-2c-9-13-9-13-9-19"/><path fill="#17074A" d="M346 179q1 3-2 5c-8 7-8 7-12 8v2l-2 1q-7 3-12 9l-2 1 1-2-1-8h-2l-3-4 18-4q9-2 17-8"/><path fill="#50237C" d="m222 104 5 3-1 3h3q6 5 7 12l-1 6h-3v-3l-1-8c-5 0-5 0-9 3l-10 4q-7 1-12 7l-2-1 24-19-3-4z"/><path fill="#997ABC" d="M350 31h2c12 20 28 50 23 74h-1v-3l-1-3v-3l-2-4-1-6q-4-27-19-48z"/><path fill="#2E0F61" d="m298 196 1 2h-2v3l-2 2q-2 2-2 5v3l9 1q-3 4-7 4-7 1-12 8v13l-2-1-1-6v-4l1-7 1-2q4-14 16-21"/><path fill="#644986" d="m389 220 3 1 24 3v3l-8 1-4-1-7-1 1 2 4 10 1 4 2 3 1 3 2 9h-3l-1-2q-4-16-14-30z"/><path fill="#4E2984" d="m327 269 9 6 3 3 5 6-5-2-2 3 2 6q6 14 5 29h-1l-1-5-1 3-1 4v2l-4 7 2-14h-1l1-4q2-15-5-31l-1-4-6-8z"/><path fill="#16014E" d="m218 350 12 13 2 2 2 2 2 1 1 4 4-4v-2h2l3 5 1 2 2 3 2 3 1 6-7-1-5-6q-5-7-12-13l-10-11z"/><path fill="#1F074D" d="M296 368v6l-3 2q-6 3-8 8l-2 1v2l5 1-14 15-2-1q0-9 6-17l2-2 4-5h2l1-2q3-5 9-8"/><path fill="#441C75" d="m292 247 4 11v2l1 5 2-1 2 3 1-7 2 1-1 6 4-1 1 3-3 3-1-2-3 3v3l3 1h-3l2 2v10l-1 4-1 3h-1l-2-10v-2l-2-8-1-4 1-4-1-4-1-3-2-4z"/><path fill="#B481DA" d="m164 56 4 2 1 3 3 1v2h2l1 3h-3v-2h-2v-2h-3l-3-4q-5 13-5 28v7l-3 2-2-2-2 2 3-18 1-5q0-5 3-10l2-3z"/><path fill="#7B47A8" d="m304 169 4 5-1 3 3-1 2 1 9 1h19l9-2q-4 6-7 5h-32c-4-1-4-1-8 1l-1 2-6 2 1-7h2l3-5 2-3z"/><path fill="#4B2781" d="m185 344 6 1 4 6 5 2-2 5 2-1h2l2 2-1 1 2 1-2 4 19 19q-5 0-8-5l-1-1-4-3-4-5c-17-16-17-16-20-26"/><path fill="#9F80BC" d="m164 30 1 3 2 1h-3l-1 2-2 5-5 10-2 6q-8 17-11 35h-1q-2-8 1-15l1-3c3-14 10-34 20-44"/><path fill="#3E1E67" d="m337 55 1 8-1 7-4 5q-9 9-15 19v-5l2-3 1-3 2-3 3-6 2-3 4-7 1-3 2-3z"/><path fill="#D0BDDA" d="M346 32v6q1 3-2 5l-2 2v-3l-20 24-3 3-2 3-4 3q1-7 7-12l10-12 11-13z"/><path fill="#6B3998" d="m290 160 2 1-1 2 5-1-7 7q-12 8-13 22l-1 11h-1v-6l-1-4-1-7 1-7 5-3 3-4 3-2-1-5h2v-2h2l1 4h2l-1-2v-3z"/><path fill="#E5D4EA" d="m166 30 24 27 2 3 2 2 2 3 5 7-1 2-13-16-13-15-4-5h-3z"/><path fill="#8E5DB8" d="m191 135 2 1-2 2-5 6-2 2h-2l-1 2-3 3-2-1-1 2q-1 5-6 6h-6l-5 1 4-3-1-2 3-2 3 1 5-2 3-2 2-1-5 1 9-7z"/><path fill="#412E66" d="M336 367q1 3-2 5l-3 3-2 2-6 3v2l-4 3-11 7-5 3-3-2 1-1 25-18 8-5z"/><path fill="#775B94" d="m338 68 1 3-2 2q-13 15-25 33l-3 4v-5l1-2 1-2 1-2 1-2 3-6h3l4-5z"/><path fill="#6A4C97" d="m365 208 3 2q19 9 38 11l-1-2h3l-3-5q7 2 10 8v2q-26 0-50-14z"/><path fill="#B49AD0" d="M198 152q20 5 34 21v2h2l3 6 2 3q3 5 2 12v6h-1v-2q-1-19-17-31-7-8-18-10-4-2-7-7"/><path fill="#320967" d="m181 330 7 9q8 11 19 18l2 2v3l-4-2v-2h-7l1-5-2-1q-4-1-6-5v-2h-5v-2q0-3-4-5z"/><path fill="#CE9BED" d="M258 250h1v10l1 3v6l1 5 7-2v2l4 1-3 1c5 2 5 2 10 1v6l-2-1-3-1-3-2-22-2q4-2 9-2z"/><path fill="#3D1E5E" d="M320 327q2 5-1 8l-3 9-5 8-6 8-12 11q2-5 6-9l11-16 2-3z"/><path fill="#280462" d="m374 215 5 1 2 1 3 1 3 1q5 3 6 8l2 2c9 19 9 19 9 24l-1 2v-3h-4l-1-5h2l-1-3-2-7-2-1-2-4-1-2-1-2-2-4-2 1v-3l-5-1v-2h-2z"/><path fill="#817197" d="m340 366-1 4-2 2-2 2-3 2-3 2q-17 16-37 27 2-4 6-7l3-2 2-1 5-4 3-1 8-7 4-1v-2l5-4z"/><path fill="#372759" d="m218 350 12 13 2 2 2 2 2 1 1 4h2l2 2 4 1v2l2 6-2 1-1-1q-7-10-16-18l-10-11z"/><path fill="#C1A5DB" d="m313 153 2 1-3 1-1 4h-2q-18 6-28 20l-4 9v-6q13-20 36-29"/><path fill="#AF9CBB" d="m198 68 15 16 2 2 4 7 14-1-9 3h-5l-1-2-4-3-6-8q-3-4-7-6z"/></svg>